<mxfile host="app.diagrams.net" modified="2023-04-19T15:52:55.740Z" agent="Mozilla/5.0 (Windows NT 10.0; Win64; x64) AppleWebKit/537.36 (KHTML, like Gecko) Chrome/112.0.0.0 Safari/537.36" etag="aEBQU4aSi8HGTdgBLnQ0" version="21.2.0" type="device">
  <diagram name="Page-1" id="bCAl37fwIDvj_ZqM9r9M">
    <mxGraphModel dx="1035" dy="532" grid="1" gridSize="10" guides="1" tooltips="1" connect="1" arrows="1" fold="1" page="1" pageScale="1" pageWidth="850" pageHeight="1100" math="0" shadow="0">
      <root>
        <mxCell id="0" />
        <mxCell id="1" parent="0" />
        <mxCell id="_vuAa1aMIuxWL2abwS94-1" value="Ξεναγός" style="shape=umlActor;verticalLabelPosition=bottom;verticalAlign=top;html=1;outlineConnect=0;fontStyle=1;" parent="1" vertex="1">
          <mxGeometry x="20" y="425" width="30" height="60" as="geometry" />
        </mxCell>
        <mxCell id="_vuAa1aMIuxWL2abwS94-5" value="Οθόνη Ιστορικού Ξεναγήσεων" style="shape=umlBoundary;whiteSpace=wrap;html=1;fontStyle=1;" parent="1" vertex="1">
          <mxGeometry x="328.94" y="40" width="100" height="80" as="geometry" />
        </mxCell>
        <mxCell id="_vuAa1aMIuxWL2abwS94-7" value="" style="endArrow=classic;html=1;rounded=0;exitX=0.5;exitY=0.5;exitDx=0;exitDy=0;exitPerimeter=0;entryX=-0.01;entryY=0.55;entryDx=0;entryDy=0;entryPerimeter=0;fontStyle=1;" parent="1" source="_vuAa1aMIuxWL2abwS94-1" target="_vuAa1aMIuxWL2abwS94-5" edge="1">
          <mxGeometry width="50" height="50" relative="1" as="geometry">
            <mxPoint x="260" y="290" as="sourcePoint" />
            <mxPoint x="310" y="240" as="targetPoint" />
          </mxGeometry>
        </mxCell>
        <mxCell id="_vuAa1aMIuxWL2abwS94-8" value="&lt;font style=&quot;font-size: 12px;&quot;&gt;Επιλογή Δημιουργίας &lt;br&gt;Νέας Ξενάγησης&lt;/font&gt;" style="edgeLabel;html=1;align=center;verticalAlign=middle;resizable=0;points=[];fontStyle=1;" parent="_vuAa1aMIuxWL2abwS94-7" vertex="1" connectable="0">
          <mxGeometry x="-0.2228" y="1" relative="1" as="geometry">
            <mxPoint x="-23" y="22" as="offset" />
          </mxGeometry>
        </mxCell>
        <mxCell id="_vuAa1aMIuxWL2abwS94-10" value="Εμφάνισε" style="ellipse;shape=umlControl;whiteSpace=wrap;html=1;fontStyle=1;" parent="1" vertex="1">
          <mxGeometry x="565" y="50" width="70" height="80" as="geometry" />
        </mxCell>
        <mxCell id="_vuAa1aMIuxWL2abwS94-11" value="Οθόνη συμπλήρωσης στοιχείων ξενάγησης" style="shape=umlBoundary;whiteSpace=wrap;html=1;fontStyle=1;" parent="1" vertex="1">
          <mxGeometry x="380" y="140" width="103.56" height="90" as="geometry" />
        </mxCell>
        <mxCell id="_vuAa1aMIuxWL2abwS94-12" value="" style="endArrow=classic;html=1;rounded=0;entryX=-0.014;entryY=0.45;entryDx=0;entryDy=0;entryPerimeter=0;exitX=1.011;exitY=0.5;exitDx=0;exitDy=0;exitPerimeter=0;fontStyle=1;" parent="1" source="_vuAa1aMIuxWL2abwS94-5" target="_vuAa1aMIuxWL2abwS94-10" edge="1">
          <mxGeometry width="50" height="50" relative="1" as="geometry">
            <mxPoint x="428.94" y="80" as="sourcePoint" />
            <mxPoint x="328.94" y="230" as="targetPoint" />
          </mxGeometry>
        </mxCell>
        <mxCell id="_vuAa1aMIuxWL2abwS94-13" value="" style="endArrow=classic;html=1;rounded=0;exitX=0;exitY=0.663;exitDx=0;exitDy=0;exitPerimeter=0;entryX=0.846;entryY=0.113;entryDx=0;entryDy=0;entryPerimeter=0;fontStyle=1;" parent="1" source="_vuAa1aMIuxWL2abwS94-10" target="_vuAa1aMIuxWL2abwS94-11" edge="1">
          <mxGeometry width="50" height="50" relative="1" as="geometry">
            <mxPoint x="644.97" y="189.99999999999997" as="sourcePoint" />
            <mxPoint x="343.94" y="286.96" as="targetPoint" />
          </mxGeometry>
        </mxCell>
        <mxCell id="_vuAa1aMIuxWL2abwS94-14" value="" style="endArrow=classic;html=1;rounded=0;exitX=0.5;exitY=0.5;exitDx=0;exitDy=0;exitPerimeter=0;entryX=-0.01;entryY=0.5;entryDx=0;entryDy=0;entryPerimeter=0;fontStyle=1;" parent="1" source="_vuAa1aMIuxWL2abwS94-1" target="_vuAa1aMIuxWL2abwS94-11" edge="1">
          <mxGeometry width="50" height="50" relative="1" as="geometry">
            <mxPoint x="260" y="280" as="sourcePoint" />
            <mxPoint x="310" y="230" as="targetPoint" />
          </mxGeometry>
        </mxCell>
        <mxCell id="_vuAa1aMIuxWL2abwS94-15" value="&lt;font style=&quot;font-size: 12px;&quot;&gt;Συμπλήρωση Στοιχείων&amp;nbsp;&lt;br&gt;Ξενάγησης&lt;br&gt;&lt;/font&gt;" style="edgeLabel;html=1;align=center;verticalAlign=middle;resizable=0;points=[];fontStyle=1;" parent="_vuAa1aMIuxWL2abwS94-14" vertex="1" connectable="0">
          <mxGeometry x="0.32" y="1" relative="1" as="geometry">
            <mxPoint as="offset" />
          </mxGeometry>
        </mxCell>
        <mxCell id="_vuAa1aMIuxWL2abwS94-16" value="Φόρτωσε" style="ellipse;shape=umlControl;whiteSpace=wrap;html=1;fontStyle=1;" parent="1" vertex="1">
          <mxGeometry x="498.94" y="250" width="70" height="80" as="geometry" />
        </mxCell>
        <mxCell id="_vuAa1aMIuxWL2abwS94-17" value="Πεδίο επιλογής ετικετών/tags" style="shape=umlBoundary;whiteSpace=wrap;html=1;rounded=1;labelBackgroundColor=none;fontStyle=1;labelBorderColor=none;" parent="1" vertex="1">
          <mxGeometry x="320.38" y="385" width="106.06" height="95" as="geometry" />
        </mxCell>
        <mxCell id="_vuAa1aMIuxWL2abwS94-18" value="" style="endArrow=classic;html=1;rounded=0;exitX=0.97;exitY=0.7;exitDx=0;exitDy=0;exitPerimeter=0;fontStyle=1;" parent="1" source="_vuAa1aMIuxWL2abwS94-11" target="_vuAa1aMIuxWL2abwS94-16" edge="1">
          <mxGeometry width="50" height="50" relative="1" as="geometry">
            <mxPoint x="278.94" y="370" as="sourcePoint" />
            <mxPoint x="328.94" y="320" as="targetPoint" />
          </mxGeometry>
        </mxCell>
        <mxCell id="_vuAa1aMIuxWL2abwS94-19" value="" style="endArrow=classic;html=1;rounded=0;fontStyle=1;" parent="1" source="_vuAa1aMIuxWL2abwS94-16" target="-2h78D8NwC2mSWmw_4OS-2" edge="1">
          <mxGeometry width="50" height="50" relative="1" as="geometry">
            <mxPoint x="515.94" y="263" as="sourcePoint" />
            <mxPoint x="560" y="260" as="targetPoint" />
          </mxGeometry>
        </mxCell>
        <mxCell id="_vuAa1aMIuxWL2abwS94-21" value="" style="endArrow=classic;html=1;rounded=0;exitX=0.5;exitY=0.5;exitDx=0;exitDy=0;exitPerimeter=0;entryX=0.02;entryY=0.54;entryDx=0;entryDy=0;entryPerimeter=0;fontStyle=1;" parent="1" source="_vuAa1aMIuxWL2abwS94-1" target="_vuAa1aMIuxWL2abwS94-17" edge="1">
          <mxGeometry width="50" height="50" relative="1" as="geometry">
            <mxPoint x="260" y="370" as="sourcePoint" />
            <mxPoint x="310" y="320" as="targetPoint" />
          </mxGeometry>
        </mxCell>
        <mxCell id="_vuAa1aMIuxWL2abwS94-22" value="&lt;font style=&quot;font-size: 12px;&quot;&gt;Επιλογή Ετικετών/Tags&lt;/font&gt;" style="edgeLabel;html=1;align=center;verticalAlign=middle;resizable=0;points=[];fontStyle=1;" parent="_vuAa1aMIuxWL2abwS94-21" vertex="1" connectable="0">
          <mxGeometry x="0.1405" y="4" relative="1" as="geometry">
            <mxPoint as="offset" />
          </mxGeometry>
        </mxCell>
        <mxCell id="_vuAa1aMIuxWL2abwS94-23" value="Συμπλήρωση απαιτούμενων στοιχείων?" style="ellipse;shape=umlControl;whiteSpace=wrap;html=1;rounded=1;labelBackgroundColor=none;fontStyle=1;labelBorderColor=none;" parent="1" vertex="1">
          <mxGeometry x="560" y="370" width="90" height="100" as="geometry" />
        </mxCell>
        <mxCell id="_vuAa1aMIuxWL2abwS94-24" value="" style="endArrow=classic;html=1;rounded=0;fontStyle=1;entryX=0;entryY=0.6;entryDx=0;entryDy=0;entryPerimeter=0;" parent="1" source="_vuAa1aMIuxWL2abwS94-17" target="_vuAa1aMIuxWL2abwS94-23" edge="1">
          <mxGeometry width="50" height="50" relative="1" as="geometry">
            <mxPoint x="278.94" y="570" as="sourcePoint" />
            <mxPoint x="430" y="470" as="targetPoint" />
          </mxGeometry>
        </mxCell>
        <mxCell id="_vuAa1aMIuxWL2abwS94-25" value="Οθόνη για ανέβασμα εικόνων" style="shape=umlBoundary;whiteSpace=wrap;html=1;rounded=1;labelBackgroundColor=none;fontStyle=1;labelBorderColor=none;" parent="1" vertex="1">
          <mxGeometry x="280" y="515" width="100" height="80" as="geometry" />
        </mxCell>
        <mxCell id="_vuAa1aMIuxWL2abwS94-26" value="Εμφάνισε" style="ellipse;shape=umlControl;whiteSpace=wrap;html=1;rounded=1;labelBackgroundColor=none;fontStyle=1;labelBorderColor=none;" parent="1" vertex="1">
          <mxGeometry x="450" y="480" width="80" height="90" as="geometry" />
        </mxCell>
        <mxCell id="_vuAa1aMIuxWL2abwS94-27" value="" style="endArrow=classic;html=1;rounded=1;exitX=0.013;exitY=0.633;exitDx=0;exitDy=0;exitPerimeter=0;entryX=0.99;entryY=0.525;entryDx=0;entryDy=0;entryPerimeter=0;labelBackgroundColor=none;fontColor=default;fontStyle=1;labelBorderColor=none;" parent="1" source="_vuAa1aMIuxWL2abwS94-26" target="_vuAa1aMIuxWL2abwS94-25" edge="1">
          <mxGeometry width="50" height="50" relative="1" as="geometry">
            <mxPoint x="443" y="577.02" as="sourcePoint" />
            <mxPoint x="365" y="435" as="targetPoint" />
          </mxGeometry>
        </mxCell>
        <mxCell id="_vuAa1aMIuxWL2abwS94-28" value="Μέγεθος αρχείων εντός ορίων?" style="ellipse;shape=umlControl;whiteSpace=wrap;html=1;rounded=1;labelBackgroundColor=none;fontStyle=1;labelBorderColor=none;" parent="1" vertex="1">
          <mxGeometry x="190" y="655" width="80" height="90" as="geometry" />
        </mxCell>
        <mxCell id="_vuAa1aMIuxWL2abwS94-31" value="" style="endArrow=classic;html=1;rounded=1;labelBackgroundColor=none;fontColor=default;fontStyle=1;labelBorderColor=none;entryX=0.018;entryY=0.364;entryDx=0;entryDy=0;entryPerimeter=0;exitX=0.825;exitY=0.889;exitDx=0;exitDy=0;exitPerimeter=0;" parent="1" source="_vuAa1aMIuxWL2abwS94-28" target="_vuAa1aMIuxWL2abwS94-40" edge="1">
          <mxGeometry width="50" height="50" relative="1" as="geometry">
            <mxPoint x="395" y="739" as="sourcePoint" />
            <mxPoint x="570" y="715" as="targetPoint" />
          </mxGeometry>
        </mxCell>
        <mxCell id="_vuAa1aMIuxWL2abwS94-78" value="&lt;font style=&quot;font-size: 12px;&quot;&gt;Ναι&lt;/font&gt;" style="edgeLabel;html=1;align=center;verticalAlign=middle;resizable=0;points=[];fontStyle=1;" parent="_vuAa1aMIuxWL2abwS94-31" vertex="1" connectable="0">
          <mxGeometry x="-0.5145" y="1" relative="1" as="geometry">
            <mxPoint x="10" y="6" as="offset" />
          </mxGeometry>
        </mxCell>
        <mxCell id="_vuAa1aMIuxWL2abwS94-32" value="Εμφάνισε" style="ellipse;shape=umlControl;whiteSpace=wrap;html=1;rounded=1;labelBackgroundColor=none;fontStyle=1;labelBorderColor=none;" parent="1" vertex="1">
          <mxGeometry x="730" y="415" width="70" height="80" as="geometry" />
        </mxCell>
        <mxCell id="_vuAa1aMIuxWL2abwS94-36" value="" style="endArrow=classic;html=1;rounded=0;exitX=0.133;exitY=0.85;exitDx=0;exitDy=0;exitPerimeter=0;fontStyle=1;" parent="1" source="_vuAa1aMIuxWL2abwS94-23" target="_vuAa1aMIuxWL2abwS94-26" edge="1">
          <mxGeometry width="50" height="50" relative="1" as="geometry">
            <mxPoint x="278.94" y="470" as="sourcePoint" />
            <mxPoint x="328.94" y="420" as="targetPoint" />
          </mxGeometry>
        </mxCell>
        <mxCell id="_vuAa1aMIuxWL2abwS94-37" value="&lt;font style=&quot;font-size: 12px;&quot;&gt;Ναι&lt;/font&gt;" style="edgeLabel;html=1;align=center;verticalAlign=middle;resizable=0;points=[];fontStyle=1;" parent="_vuAa1aMIuxWL2abwS94-36" vertex="1" connectable="0">
          <mxGeometry x="-0.547" y="-1" relative="1" as="geometry">
            <mxPoint x="-11" y="10" as="offset" />
          </mxGeometry>
        </mxCell>
        <mxCell id="_vuAa1aMIuxWL2abwS94-38" value="" style="endArrow=classic;html=1;rounded=0;exitX=0.5;exitY=0.5;exitDx=0;exitDy=0;exitPerimeter=0;entryX=-0.01;entryY=0.532;entryDx=0;entryDy=0;entryPerimeter=0;fontStyle=1;" parent="1" source="_vuAa1aMIuxWL2abwS94-1" target="_vuAa1aMIuxWL2abwS94-25" edge="1">
          <mxGeometry width="50" height="50" relative="1" as="geometry">
            <mxPoint x="260" y="370" as="sourcePoint" />
            <mxPoint x="310" y="320" as="targetPoint" />
          </mxGeometry>
        </mxCell>
        <mxCell id="_vuAa1aMIuxWL2abwS94-39" value="&lt;font style=&quot;font-size: 12px;&quot;&gt;Ανέβασμα Εικόνων&lt;/font&gt;" style="edgeLabel;html=1;align=center;verticalAlign=middle;resizable=0;points=[];fontStyle=1;" parent="_vuAa1aMIuxWL2abwS94-38" vertex="1" connectable="0">
          <mxGeometry x="0.1495" y="-1" relative="1" as="geometry">
            <mxPoint as="offset" />
          </mxGeometry>
        </mxCell>
        <mxCell id="_vuAa1aMIuxWL2abwS94-40" value="Εμφάνισε" style="ellipse;shape=umlControl;whiteSpace=wrap;html=1;fontStyle=1;" parent="1" vertex="1">
          <mxGeometry x="338.40999999999997" y="720" width="70" height="80" as="geometry" />
        </mxCell>
        <mxCell id="_vuAa1aMIuxWL2abwS94-41" value="Οθόνη Εισαγωγής Τρόπου Πληρωμής" style="shape=umlBoundary;whiteSpace=wrap;html=1;fontStyle=1;" parent="1" vertex="1">
          <mxGeometry x="210" y="825" width="100" height="80" as="geometry" />
        </mxCell>
        <mxCell id="_vuAa1aMIuxWL2abwS94-42" value="" style="endArrow=classic;html=1;rounded=0;exitX=0.15;exitY=0.884;exitDx=0;exitDy=0;exitPerimeter=0;entryX=1;entryY=0.488;entryDx=0;entryDy=0;entryPerimeter=0;fontStyle=1;" parent="1" source="_vuAa1aMIuxWL2abwS94-40" target="_vuAa1aMIuxWL2abwS94-41" edge="1">
          <mxGeometry width="50" height="50" relative="1" as="geometry">
            <mxPoint x="635" y="815" as="sourcePoint" />
            <mxPoint x="330" y="785" as="targetPoint" />
          </mxGeometry>
        </mxCell>
        <mxCell id="_vuAa1aMIuxWL2abwS94-43" value="&lt;font style=&quot;font-size: 12px;&quot;&gt;Εισαγωγή Τραπεζικών Στοιχείων&lt;/font&gt;" style="endArrow=classic;html=1;rounded=0;exitX=0.5;exitY=0.5;exitDx=0;exitDy=0;exitPerimeter=0;entryX=-0.04;entryY=0.55;entryDx=0;entryDy=0;entryPerimeter=0;fontStyle=1;" parent="1" source="_vuAa1aMIuxWL2abwS94-1" target="_vuAa1aMIuxWL2abwS94-41" edge="1">
          <mxGeometry x="-0.3067" y="3" width="50" height="50" relative="1" as="geometry">
            <mxPoint x="260" y="580" as="sourcePoint" />
            <mxPoint x="310" y="530" as="targetPoint" />
            <mxPoint as="offset" />
          </mxGeometry>
        </mxCell>
        <mxCell id="_vuAa1aMIuxWL2abwS94-45" value="Στοιχεία Πληρωμής Έγκυρα?" style="ellipse;shape=umlControl;whiteSpace=wrap;html=1;fontStyle=1;" parent="1" vertex="1">
          <mxGeometry x="316.44" y="927.5" width="92.5" height="100" as="geometry" />
        </mxCell>
        <mxCell id="_vuAa1aMIuxWL2abwS94-46" value="" style="endArrow=classic;html=1;rounded=0;exitX=0.93;exitY=0.838;exitDx=0;exitDy=0;exitPerimeter=0;entryX=0.225;entryY=0.158;entryDx=0;entryDy=0;entryPerimeter=0;fontStyle=1;" parent="1" source="_vuAa1aMIuxWL2abwS94-41" target="_vuAa1aMIuxWL2abwS94-45" edge="1">
          <mxGeometry width="50" height="50" relative="1" as="geometry">
            <mxPoint x="410" y="955" as="sourcePoint" />
            <mxPoint x="460" y="905" as="targetPoint" />
          </mxGeometry>
        </mxCell>
        <mxCell id="_vuAa1aMIuxWL2abwS94-47" value="Δημιουργία" style="ellipse;shape=umlControl;whiteSpace=wrap;html=1;fontStyle=1;" parent="1" vertex="1">
          <mxGeometry x="460.00000000000006" y="865" width="80" height="90" as="geometry" />
        </mxCell>
        <mxCell id="_vuAa1aMIuxWL2abwS94-48" value="" style="endArrow=classic;html=1;rounded=0;exitX=0.909;exitY=0.315;exitDx=0;exitDy=0;exitPerimeter=0;fontStyle=1;" parent="1" source="_vuAa1aMIuxWL2abwS94-45" target="_vuAa1aMIuxWL2abwS94-47" edge="1">
          <mxGeometry width="50" height="50" relative="1" as="geometry">
            <mxPoint x="370" y="975" as="sourcePoint" />
            <mxPoint x="420" y="925" as="targetPoint" />
          </mxGeometry>
        </mxCell>
        <mxCell id="_vuAa1aMIuxWL2abwS94-59" value="&lt;font style=&quot;font-size: 12px;&quot;&gt;Ναι&lt;/font&gt;" style="edgeLabel;html=1;align=center;verticalAlign=middle;resizable=0;points=[];fontStyle=1;" parent="_vuAa1aMIuxWL2abwS94-48" vertex="1" connectable="0">
          <mxGeometry x="-0.187" y="3" relative="1" as="geometry">
            <mxPoint as="offset" />
          </mxGeometry>
        </mxCell>
        <mxCell id="_vuAa1aMIuxWL2abwS94-49" value="Ξενάγηση" style="ellipse;shape=umlEntity;whiteSpace=wrap;html=1;fontFamily=Helvetica;fontSize=11;fontColor=default;fontStyle=1;" parent="1" vertex="1">
          <mxGeometry x="430" y="745" width="70" height="65" as="geometry" />
        </mxCell>
        <mxCell id="_vuAa1aMIuxWL2abwS94-50" value="" style="endArrow=classic;html=1;rounded=0;fontStyle=1;entryX=0.226;entryY=0.967;entryDx=0;entryDy=0;entryPerimeter=0;exitX=0.775;exitY=0.211;exitDx=0;exitDy=0;exitPerimeter=0;" parent="1" source="_vuAa1aMIuxWL2abwS94-47" target="8V7NM1SXL0UpTNKnD7uO-2" edge="1">
          <mxGeometry width="50" height="50" relative="1" as="geometry">
            <mxPoint x="370" y="955" as="sourcePoint" />
            <mxPoint x="630" y="800" as="targetPoint" />
          </mxGeometry>
        </mxCell>
        <mxCell id="_vuAa1aMIuxWL2abwS94-51" value="Εμφάνισε Μήνυμα Επιτυχούς Δημοσίευσης" style="ellipse;shape=umlControl;whiteSpace=wrap;html=1;rounded=1;labelBackgroundColor=none;fontStyle=1;labelBorderColor=none;" parent="1" vertex="1">
          <mxGeometry x="740" y="740" width="90" height="110" as="geometry" />
        </mxCell>
        <mxCell id="_vuAa1aMIuxWL2abwS94-53" value="Εμφάνισε" style="ellipse;shape=umlControl;whiteSpace=wrap;html=1;rounded=1;labelBackgroundColor=none;fontStyle=1;labelBorderColor=none;" parent="1" vertex="1">
          <mxGeometry x="750" y="900" width="70" height="80" as="geometry" />
        </mxCell>
        <mxCell id="_vuAa1aMIuxWL2abwS94-54" value="Οθόνη Ιστορικού Ξεναγήσεων" style="shape=umlBoundary;whiteSpace=wrap;html=1;fontStyle=1;" parent="1" vertex="1">
          <mxGeometry x="590" y="955" width="100" height="80" as="geometry" />
        </mxCell>
        <mxCell id="_vuAa1aMIuxWL2abwS94-56" value="" style="endArrow=classic;html=1;rounded=0;fontStyle=1;entryX=0.486;entryY=0.138;entryDx=0;entryDy=0;entryPerimeter=0;" parent="1" source="_vuAa1aMIuxWL2abwS94-51" target="_vuAa1aMIuxWL2abwS94-53" edge="1">
          <mxGeometry width="50" height="50" relative="1" as="geometry">
            <mxPoint x="345" y="1110" as="sourcePoint" />
            <mxPoint x="778.6206896551723" y="855" as="targetPoint" />
          </mxGeometry>
        </mxCell>
        <mxCell id="_vuAa1aMIuxWL2abwS94-58" value="" style="endArrow=classic;html=1;rounded=0;entryX=0.99;entryY=0.475;entryDx=0;entryDy=0;entryPerimeter=0;fontStyle=1;exitX=0.029;exitY=0.6;exitDx=0;exitDy=0;exitPerimeter=0;" parent="1" source="_vuAa1aMIuxWL2abwS94-53" target="_vuAa1aMIuxWL2abwS94-54" edge="1">
          <mxGeometry width="50" height="50" relative="1" as="geometry">
            <mxPoint x="740" y="990" as="sourcePoint" />
            <mxPoint x="545" y="1075" as="targetPoint" />
          </mxGeometry>
        </mxCell>
        <mxCell id="_vuAa1aMIuxWL2abwS94-61" value="" style="endArrow=classic;html=1;rounded=0;exitX=0.989;exitY=0.66;exitDx=0;exitDy=0;exitPerimeter=0;entryX=0;entryY=0.575;entryDx=0;entryDy=0;entryPerimeter=0;fontStyle=1;strokeWidth=2;strokeColor=#FF0000;" parent="1" source="_vuAa1aMIuxWL2abwS94-23" target="_vuAa1aMIuxWL2abwS94-32" edge="1">
          <mxGeometry width="50" height="50" relative="1" as="geometry">
            <mxPoint x="388.94" y="380" as="sourcePoint" />
            <mxPoint x="438.94" y="330" as="targetPoint" />
          </mxGeometry>
        </mxCell>
        <mxCell id="_vuAa1aMIuxWL2abwS94-66" value="&lt;font style=&quot;font-size: 12px;&quot;&gt;Όχι&lt;/font&gt;" style="edgeLabel;html=1;align=center;verticalAlign=middle;resizable=0;points=[];fontStyle=1;" parent="_vuAa1aMIuxWL2abwS94-61" vertex="1" connectable="0">
          <mxGeometry x="-0.4736" y="-3" relative="1" as="geometry">
            <mxPoint x="10" y="-2" as="offset" />
          </mxGeometry>
        </mxCell>
        <mxCell id="_vuAa1aMIuxWL2abwS94-67" style="edgeStyle=orthogonalEdgeStyle;rounded=0;orthogonalLoop=1;jettySize=auto;html=1;exitX=0.628;exitY=-0.008;exitDx=0;exitDy=0;exitPerimeter=0;fontStyle=1;strokeWidth=2;strokeColor=#FF0000;" parent="1" source="_vuAa1aMIuxWL2abwS94-64" edge="1">
          <mxGeometry relative="1" as="geometry">
            <Array as="points">
              <mxPoint x="778" y="170" />
            </Array>
            <mxPoint x="480" y="170" as="targetPoint" />
          </mxGeometry>
        </mxCell>
        <mxCell id="_vuAa1aMIuxWL2abwS94-64" value="Μήνυμα Αποτυχίας" style="shape=umlBoundary;whiteSpace=wrap;html=1;rounded=1;labelBackgroundColor=none;fontStyle=1;labelBorderColor=none;" parent="1" vertex="1">
          <mxGeometry x="715" y="290" width="100" height="80" as="geometry" />
        </mxCell>
        <mxCell id="_vuAa1aMIuxWL2abwS94-65" value="" style="endArrow=classic;html=1;rounded=0;exitX=0.629;exitY=0.125;exitDx=0;exitDy=0;exitPerimeter=0;entryX=0.559;entryY=1.034;entryDx=0;entryDy=0;entryPerimeter=0;fontStyle=1;strokeWidth=2;strokeColor=#FF0000;" parent="1" source="_vuAa1aMIuxWL2abwS94-32" target="_vuAa1aMIuxWL2abwS94-64" edge="1">
          <mxGeometry width="50" height="50" relative="1" as="geometry">
            <mxPoint x="388.94" y="490" as="sourcePoint" />
            <mxPoint x="438.94" y="440" as="targetPoint" />
          </mxGeometry>
        </mxCell>
        <mxCell id="_vuAa1aMIuxWL2abwS94-68" value="" style="endArrow=classic;html=1;rounded=0;entryX=0.473;entryY=0.159;entryDx=0;entryDy=0;entryPerimeter=0;fontStyle=1;exitX=0.5;exitY=0.988;exitDx=0;exitDy=0;exitPerimeter=0;" parent="1" source="_vuAa1aMIuxWL2abwS94-25" target="_vuAa1aMIuxWL2abwS94-28" edge="1">
          <mxGeometry width="50" height="50" relative="1" as="geometry">
            <mxPoint x="340" y="595" as="sourcePoint" />
            <mxPoint x="290" y="565" as="targetPoint" />
          </mxGeometry>
        </mxCell>
        <mxCell id="_vuAa1aMIuxWL2abwS94-69" value="Εμφάνισε Μήνυμα Υπέρβασης Ορίου Μεγέθους Αρχείων" style="ellipse;shape=umlControl;whiteSpace=wrap;html=1;fontStyle=1;" parent="1" vertex="1">
          <mxGeometry x="395.38" y="600" width="101.06" height="115" as="geometry" />
        </mxCell>
        <mxCell id="_vuAa1aMIuxWL2abwS94-72" value="" style="endArrow=classic;html=1;rounded=0;exitX=0.925;exitY=0.3;exitDx=0;exitDy=0;exitPerimeter=0;fontStyle=1;strokeWidth=2;strokeColor=#FF0000;entryX=0.008;entryY=0.693;entryDx=0;entryDy=0;entryPerimeter=0;" parent="1" source="_vuAa1aMIuxWL2abwS94-28" target="_vuAa1aMIuxWL2abwS94-69" edge="1">
          <mxGeometry width="50" height="50" relative="1" as="geometry">
            <mxPoint x="413" y="599" as="sourcePoint" />
            <mxPoint x="370" y="660" as="targetPoint" />
          </mxGeometry>
        </mxCell>
        <mxCell id="_vuAa1aMIuxWL2abwS94-73" value="&lt;font style=&quot;font-size: 12px;&quot;&gt;Όχι&lt;/font&gt;" style="edgeLabel;html=1;align=center;verticalAlign=middle;resizable=0;points=[];fontStyle=1;" parent="_vuAa1aMIuxWL2abwS94-72" vertex="1" connectable="0">
          <mxGeometry x="0.3188" y="4" relative="1" as="geometry">
            <mxPoint x="-17" y="3" as="offset" />
          </mxGeometry>
        </mxCell>
        <mxCell id="_vuAa1aMIuxWL2abwS94-80" value="" style="endArrow=classic;html=1;rounded=0;entryX=0.952;entryY=0.812;entryDx=0;entryDy=0;entryPerimeter=0;exitX=0.2;exitY=0.193;exitDx=0;exitDy=0;exitPerimeter=0;fontStyle=1;strokeWidth=2;strokeColor=#FF0000;" parent="1" source="_vuAa1aMIuxWL2abwS94-69" target="_vuAa1aMIuxWL2abwS94-25" edge="1">
          <mxGeometry width="50" height="50" relative="1" as="geometry">
            <mxPoint x="550" y="615" as="sourcePoint" />
            <mxPoint x="157" y="885" as="targetPoint" />
          </mxGeometry>
        </mxCell>
        <mxCell id="_vuAa1aMIuxWL2abwS94-83" value="Εμφάνισε Μήνυμα Αποτυχίας Επαλήθευσης Στοιχείων ΠΛηρωμής" style="ellipse;shape=umlControl;whiteSpace=wrap;html=1;fontStyle=1;" parent="1" vertex="1">
          <mxGeometry x="140" y="920" width="100" height="115" as="geometry" />
        </mxCell>
        <mxCell id="_vuAa1aMIuxWL2abwS94-86" value="" style="endArrow=classic;html=1;rounded=0;fontStyle=1;strokeWidth=2;strokeColor=#FF0000;entryX=1;entryY=0.583;entryDx=0;entryDy=0;entryPerimeter=0;exitX=0.006;exitY=0.595;exitDx=0;exitDy=0;exitPerimeter=0;" parent="1" source="_vuAa1aMIuxWL2abwS94-45" target="_vuAa1aMIuxWL2abwS94-83" edge="1">
          <mxGeometry width="50" height="50" relative="1" as="geometry">
            <mxPoint x="31.060000000000002" y="765" as="sourcePoint" />
            <mxPoint x="81.06" y="715" as="targetPoint" />
          </mxGeometry>
        </mxCell>
        <mxCell id="_vuAa1aMIuxWL2abwS94-87" value="&lt;span style=&quot;font-size: 12px;&quot;&gt;Όχι&lt;/span&gt;" style="edgeLabel;html=1;align=center;verticalAlign=middle;resizable=0;points=[];fontStyle=1;" parent="_vuAa1aMIuxWL2abwS94-86" vertex="1" connectable="0">
          <mxGeometry x="-0.4261" y="1" relative="1" as="geometry">
            <mxPoint x="-11" y="-1" as="offset" />
          </mxGeometry>
        </mxCell>
        <mxCell id="_vuAa1aMIuxWL2abwS94-89" value="" style="endArrow=classic;html=1;rounded=0;entryX=0.36;entryY=0.925;entryDx=0;entryDy=0;entryPerimeter=0;fontStyle=1;strokeWidth=2;strokeColor=#FF0000;exitX=0.75;exitY=0.174;exitDx=0;exitDy=0;exitPerimeter=0;" parent="1" source="_vuAa1aMIuxWL2abwS94-83" target="_vuAa1aMIuxWL2abwS94-41" edge="1">
          <mxGeometry width="50" height="50" relative="1" as="geometry">
            <mxPoint x="187.51999999999998" y="904.9000000000001" as="sourcePoint" />
            <mxPoint x="271.06" y="875" as="targetPoint" />
          </mxGeometry>
        </mxCell>
        <mxCell id="AZ5zpPVhn2oC35pCDIvC-1" value="Εμφάνισε" style="ellipse;shape=umlControl;whiteSpace=wrap;html=1;rounded=1;labelBackgroundColor=none;fontStyle=1;labelBorderColor=none;" parent="1" vertex="1">
          <mxGeometry x="348.94" y="280" width="60" height="70" as="geometry" />
        </mxCell>
        <mxCell id="AZ5zpPVhn2oC35pCDIvC-3" value="" style="endArrow=classic;html=1;rounded=0;hachureGap=4;fontFamily=Architects Daughter;fontSource=https%3A%2F%2Ffonts.googleapis.com%2Fcss%3Ffamily%3DArchitects%2BDaughter;fontSize=16;exitX=0.425;exitY=0.988;exitDx=0;exitDy=0;exitPerimeter=0;fontStyle=1" parent="1" source="AZ5zpPVhn2oC35pCDIvC-1" target="_vuAa1aMIuxWL2abwS94-17" edge="1">
          <mxGeometry width="50" height="50" relative="1" as="geometry">
            <mxPoint x="400" y="500" as="sourcePoint" />
            <mxPoint x="396.48" y="402" as="targetPoint" />
          </mxGeometry>
        </mxCell>
        <mxCell id="AZ5zpPVhn2oC35pCDIvC-4" value="" style="endArrow=classic;html=1;rounded=0;hachureGap=4;fontFamily=Architects Daughter;fontSource=https%3A%2F%2Ffonts.googleapis.com%2Fcss%3Ffamily%3DArchitects%2BDaughter;fontSize=16;exitX=0.001;exitY=0.638;exitDx=0;exitDy=0;fontStyle=1;exitPerimeter=0;" parent="1" source="_vuAa1aMIuxWL2abwS94-16" target="AZ5zpPVhn2oC35pCDIvC-1" edge="1">
          <mxGeometry width="50" height="50" relative="1" as="geometry">
            <mxPoint x="401.44000000000005" y="420" as="sourcePoint" />
            <mxPoint x="450" y="450" as="targetPoint" />
          </mxGeometry>
        </mxCell>
        <mxCell id="8V7NM1SXL0UpTNKnD7uO-2" value="Αποθήκευση" style="ellipse;shape=umlControl;whiteSpace=wrap;html=1;fontStyle=1;" parent="1" vertex="1">
          <mxGeometry x="530" y="760" width="80" height="90" as="geometry" />
        </mxCell>
        <mxCell id="8V7NM1SXL0UpTNKnD7uO-5" value="" style="endArrow=classic;html=1;rounded=0;hachureGap=4;fontFamily=Architects Daughter;fontSource=https%3A%2F%2Ffonts.googleapis.com%2Fcss%3Ffamily%3DArchitects%2BDaughter;fontSize=16;entryX=1;entryY=1;entryDx=0;entryDy=0;exitX=0.013;exitY=0.567;exitDx=0;exitDy=0;exitPerimeter=0;" parent="1" source="8V7NM1SXL0UpTNKnD7uO-2" target="_vuAa1aMIuxWL2abwS94-49" edge="1">
          <mxGeometry width="50" height="50" relative="1" as="geometry">
            <mxPoint x="280" y="740" as="sourcePoint" />
            <mxPoint x="330" y="690" as="targetPoint" />
          </mxGeometry>
        </mxCell>
        <mxCell id="-2h78D8NwC2mSWmw_4OS-2" value="&lt;font style=&quot;font-size: 12px;&quot;&gt;Ετικέτες/Tags&lt;/font&gt;" style="ellipse;shape=umlEntity;whiteSpace=wrap;html=1;fontFamily=Helvetica;fontSize=11;rounded=1;labelBackgroundColor=none;fontStyle=1;labelBorderColor=none;" parent="1" vertex="1">
          <mxGeometry x="623.94" y="190" width="80" height="80" as="geometry" />
        </mxCell>
        <mxCell id="6x-jS217EGRno-RkUnH8-2" value="Έλεγξε για Επιλογή Δημοσίευσης" style="ellipse;shape=umlControl;whiteSpace=wrap;html=1;fontStyle=1;" parent="1" vertex="1">
          <mxGeometry x="600" y="505" width="80" height="90" as="geometry" />
        </mxCell>
        <mxCell id="6x-jS217EGRno-RkUnH8-3" value="" style="endArrow=classic;html=1;rounded=0;" parent="1" source="6x-jS217EGRno-RkUnH8-10" target="6x-jS217EGRno-RkUnH8-2" edge="1">
          <mxGeometry width="50" height="50" relative="1" as="geometry">
            <mxPoint x="680" y="640" as="sourcePoint" />
            <mxPoint x="640" y="710" as="targetPoint" />
          </mxGeometry>
        </mxCell>
        <mxCell id="6x-jS217EGRno-RkUnH8-4" value="" style="endArrow=classic;html=1;rounded=0;exitX=0.675;exitY=0.989;exitDx=0;exitDy=0;exitPerimeter=0;fontStyle=1;entryX=0.011;entryY=0.448;entryDx=0;entryDy=0;entryPerimeter=0;" parent="1" source="6x-jS217EGRno-RkUnH8-2" target="9z0R-OL_Knqyuf6gc-zT-4" edge="1">
          <mxGeometry width="50" height="50" relative="1" as="geometry">
            <mxPoint x="590" y="760" as="sourcePoint" />
            <mxPoint x="760" y="640" as="targetPoint" />
          </mxGeometry>
        </mxCell>
        <mxCell id="6x-jS217EGRno-RkUnH8-7" value="&lt;font style=&quot;font-size: 12px;&quot;&gt;Ναι&lt;/font&gt;" style="edgeLabel;html=1;align=center;verticalAlign=middle;resizable=0;points=[];fontStyle=1" parent="6x-jS217EGRno-RkUnH8-4" vertex="1" connectable="0">
          <mxGeometry x="-0.3318" y="-2" relative="1" as="geometry">
            <mxPoint x="6" y="2" as="offset" />
          </mxGeometry>
        </mxCell>
        <mxCell id="6x-jS217EGRno-RkUnH8-10" value="Εμφάνισε Μύνημα για Δημοσίευση" style="ellipse;shape=umlControl;whiteSpace=wrap;html=1;rounded=1;labelBackgroundColor=none;fontStyle=1;labelBorderColor=none;" parent="1" vertex="1">
          <mxGeometry x="530" y="620" width="80" height="95" as="geometry" />
        </mxCell>
        <mxCell id="6x-jS217EGRno-RkUnH8-11" value="" style="endArrow=classic;html=1;rounded=0;exitX=0.467;exitY=0.18;exitDx=0;exitDy=0;exitPerimeter=0;" parent="1" source="8V7NM1SXL0UpTNKnD7uO-2" target="6x-jS217EGRno-RkUnH8-10" edge="1">
          <mxGeometry width="50" height="50" relative="1" as="geometry">
            <mxPoint x="640" y="750" as="sourcePoint" />
            <mxPoint x="690" y="700" as="targetPoint" />
          </mxGeometry>
        </mxCell>
        <mxCell id="6x-jS217EGRno-RkUnH8-12" value="Εμφάνισε Μήνυμα Επιτυχούς Αποθήκευσης" style="ellipse;shape=umlControl;whiteSpace=wrap;html=1;rounded=1;labelBackgroundColor=none;fontStyle=1;labelBorderColor=none;" parent="1" vertex="1">
          <mxGeometry x="623.94" y="800" width="90" height="110" as="geometry" />
        </mxCell>
        <mxCell id="6x-jS217EGRno-RkUnH8-13" value="" style="endArrow=classic;html=1;rounded=0;exitX=0.518;exitY=1.001;exitDx=0;exitDy=0;exitPerimeter=0;entryX=0.512;entryY=0.109;entryDx=0;entryDy=0;entryPerimeter=0;strokeWidth=2;strokeColor=#FF0000;" parent="1" source="6x-jS217EGRno-RkUnH8-2" target="6x-jS217EGRno-RkUnH8-12" edge="1">
          <mxGeometry width="50" height="50" relative="1" as="geometry">
            <mxPoint x="697.06" y="600" as="sourcePoint" />
            <mxPoint x="690" y="836.99" as="targetPoint" />
            <Array as="points">
              <mxPoint x="650" y="710" />
            </Array>
          </mxGeometry>
        </mxCell>
        <mxCell id="6x-jS217EGRno-RkUnH8-14" value="&lt;font style=&quot;font-size: 12px;&quot;&gt;&lt;b&gt;Όχι&lt;/b&gt;&lt;/font&gt;" style="edgeLabel;html=1;align=center;verticalAlign=middle;resizable=0;points=[];" parent="6x-jS217EGRno-RkUnH8-13" vertex="1" connectable="0">
          <mxGeometry x="0.415" relative="1" as="geometry">
            <mxPoint x="-9" y="-45" as="offset" />
          </mxGeometry>
        </mxCell>
        <mxCell id="6x-jS217EGRno-RkUnH8-15" value="" style="endArrow=classic;html=1;rounded=0;entryX=0.129;entryY=0.288;entryDx=0;entryDy=0;entryPerimeter=0;strokeWidth=2;strokeColor=#FF0000;" parent="1" source="6x-jS217EGRno-RkUnH8-12" target="_vuAa1aMIuxWL2abwS94-53" edge="1">
          <mxGeometry width="50" height="50" relative="1" as="geometry">
            <mxPoint x="640" y="930" as="sourcePoint" />
            <mxPoint x="690" y="880" as="targetPoint" />
          </mxGeometry>
        </mxCell>
        <mxCell id="9z0R-OL_Knqyuf6gc-zT-3" value="" style="endArrow=classic;html=1;rounded=0;entryX=0.5;entryY=1;entryDx=0;entryDy=0;exitX=0.195;exitY=0.242;exitDx=0;exitDy=0;exitPerimeter=0;" edge="1" parent="1" source="_vuAa1aMIuxWL2abwS94-47" target="_vuAa1aMIuxWL2abwS94-49">
          <mxGeometry width="50" height="50" relative="1" as="geometry">
            <mxPoint x="480" y="890" as="sourcePoint" />
            <mxPoint x="540" y="820" as="targetPoint" />
          </mxGeometry>
        </mxCell>
        <mxCell id="9z0R-OL_Knqyuf6gc-zT-4" value="Ανάρτησε" style="ellipse;shape=umlControl;whiteSpace=wrap;html=1;fontStyle=1;" vertex="1" parent="1">
          <mxGeometry x="730" y="630" width="80" height="90" as="geometry" />
        </mxCell>
        <mxCell id="9z0R-OL_Knqyuf6gc-zT-5" value="" style="endArrow=classic;html=1;rounded=0;exitX=0.511;exitY=0.997;exitDx=0;exitDy=0;exitPerimeter=0;entryX=0.395;entryY=0.169;entryDx=0;entryDy=0;entryPerimeter=0;" edge="1" parent="1" source="9z0R-OL_Knqyuf6gc-zT-4" target="_vuAa1aMIuxWL2abwS94-51">
          <mxGeometry width="50" height="50" relative="1" as="geometry">
            <mxPoint x="490" y="840" as="sourcePoint" />
            <mxPoint x="540" y="790" as="targetPoint" />
          </mxGeometry>
        </mxCell>
        <mxCell id="9z0R-OL_Knqyuf6gc-zT-6" value="Ξενάγηση" style="ellipse;shape=umlEntity;whiteSpace=wrap;html=1;fontFamily=Helvetica;fontSize=11;fontColor=default;fontStyle=1;" vertex="1" parent="1">
          <mxGeometry x="750" y="530" width="70" height="65" as="geometry" />
        </mxCell>
        <mxCell id="9z0R-OL_Knqyuf6gc-zT-7" value="" style="endArrow=classic;html=1;rounded=0;exitX=0.643;exitY=0.122;exitDx=0;exitDy=0;exitPerimeter=0;entryX=0.5;entryY=1;entryDx=0;entryDy=0;" edge="1" parent="1" source="9z0R-OL_Knqyuf6gc-zT-4" target="9z0R-OL_Knqyuf6gc-zT-6">
          <mxGeometry width="50" height="50" relative="1" as="geometry">
            <mxPoint x="490" y="720" as="sourcePoint" />
            <mxPoint x="540" y="670" as="targetPoint" />
          </mxGeometry>
        </mxCell>
      </root>
    </mxGraphModel>
  </diagram>
</mxfile>
